<svg id="visual" viewBox="0 0 900 600" width="900" height="600" xmlns="http://www.w3.org/2000/svg" xmlns:xlink="http://www.w3.org/1999/xlink" version="1.1"><rect x="0" y="0" width="900" height="600" fill="#941c87"></rect><path d="M0 399L129 444L257 436L386 388L514 352L643 427L771 352L900 376L900 601L771 601L643 601L514 601L386 601L257 601L129 601L0 601Z" fill="#ff6f61"></path><path d="M0 433L129 433L257 429L386 476L514 441L643 478L771 469L900 408L900 601L771 601L643 601L514 601L386 601L257 601L129 601L0 601Z" fill="#f35c62"></path><path d="M0 470L129 459L257 445L386 474L514 496L643 465L771 445L900 507L900 601L771 601L643 601L514 601L386 601L257 601L129 601L0 601Z" fill="#e64964"></path><path d="M0 488L129 483L257 514L386 507L514 493L643 526L771 533L900 540L900 601L771 601L643 601L514 601L386 601L257 601L129 601L0 601Z" fill="#d73666"></path><path d="M0 541L129 564L257 532L386 569L514 539L643 532L771 567L900 531L900 601L771 601L643 601L514 601L386 601L257 601L129 601L0 601Z" fill="#c62368"></path></svg>