<svg id="visual" viewBox="0 0 900 600" width="900" height="600" xmlns="http://www.w3.org/2000/svg" xmlns:xlink="http://www.w3.org/1999/xlink" version="1.1"><rect x="0" y="0" width="900" height="600" fill="#FFFFFF"></rect><path d="M0 422L21.5 426.2C43 430.3 86 438.7 128.8 448.3C171.7 458 214.3 469 257.2 477.2C300 485.3 343 490.7 385.8 475C428.7 459.3 471.3 422.7 514.2 424.2C557 425.7 600 465.3 642.8 465.3C685.7 465.3 728.3 425.7 771.2 403.8C814 382 857 378 878.5 376L900 374L900 601L878.5 601C857 601 814 601 771.2 601C728.3 601 685.7 601 642.8 601C600 601 557 601 514.2 601C471.3 601 428.7 601 385.8 601C343 601 300 601 257.2 601C214.3 601 171.7 601 128.8 601C86 601 43 601 21.5 601L0 601Z" fill="#6f5b7e" stroke-linecap="round" stroke-linejoin="miter"></path></svg>